<?xml version="1.0" standalone="no"?>
<!DOCTYPE svg PUBLIC "-//W3C//DTD SVG 20010904//EN"
 "http://www.w3.org/TR/2001/REC-SVG-20010904/DTD/svg10.dtd">
<svg version="1.0" xmlns="http://www.w3.org/2000/svg"
 width="520.000000pt" height="161.000000pt" viewBox="0 0 520.000000 161.000000"
 preserveAspectRatio="xMidYMid meet">

<g transform="translate(0.000000,161.000000) scale(0.100000,-0.100000)"
fill="#000000" stroke="none">
<path d="M661 1570 c-146 -31 -276 -98 -382 -197 -170 -161 -251 -345 -251
-573 0 -228 81 -412 251 -573 88 -82 190 -141 311 -179 64 -20 95 -23 220 -23
137 1 150 2 239 33 261 90 444 286 517 552 25 90 25 290 0 380 -73 266 -258
463 -517 551 -82 28 -110 32 -219 35 -69 2 -145 -1 -169 -6z m524 -413 c49
-28 87 -83 116 -167 31 -92 38 -370 12 -445 -22 -61 -67 -95 -127 -95 -53 0
-89 23 -183 115 l-76 75 -135 0 -135 0 -62 -63 c-90 -94 -140 -127 -189 -127
-51 0 -99 29 -123 72 -22 42 -31 292 -13 397 13 78 56 175 91 208 58 53 58 53
434 53 344 0 351 -1 390 -23z"/>
<path d="M399 1080 c-62 -65 -82 -149 -83 -340 0 -128 3 -161 18 -188 40 -77
94 -61 221 67 l80 81 158 0 158 0 83 -83 c46 -46 100 -91 119 -101 33 -15 39
-15 66 -2 42 22 51 61 51 224 0 158 -14 237 -56 309 -44 76 -26 73 -423 73
l-354 0 -38 -40z m254 -68 c73 -69 42 -206 -54 -232 -83 -23 -157 17 -178 96
-37 137 128 234 232 136z m417 9 c21 -41 -21 -81 -58 -55 -38 26 -22 74 25 74
12 0 27 -9 33 -19z m-84 -96 c11 -43 -34 -73 -64 -43 -13 13 -16 50 -5 61 3 4
19 7 34 7 22 0 30 -6 35 -25z m170 0 c11 -43 -34 -73 -64 -43 -13 13 -16 50
-5 61 3 4 19 7 34 7 22 0 30 -6 35 -25z m-86 -74 c21 -41 -21 -81 -58 -55 -38
26 -22 74 25 74 12 0 27 -9 33 -19z"/>
<path d="M497 972 c-23 -25 -21 -32 8 -32 20 0 25 5 25 25 0 30 -11 32 -33 7z"/>
<path d="M580 965 c0 -20 5 -25 25 -25 30 0 32 11 7 33 -25 23 -32 21 -32 -8z"/>
<path d="M480 871 c0 -5 11 -16 25 -25 24 -16 25 -16 25 9 0 20 -5 25 -25 25
-14 0 -25 -4 -25 -9z"/>
<path d="M580 855 c0 -25 1 -25 25 -9 14 9 25 20 25 25 0 5 -11 9 -25 9 -20 0
-25 -5 -25 -25z"/>
<path d="M3580 890 l0 -220 65 0 65 0 0 220 0 220 -65 0 -65 0 0 -220z"/>
<path d="M4830 890 l0 -220 65 0 65 0 0 220 0 220 -65 0 -65 0 0 -220z"/>
<path d="M1783 949 l-43 -40 0 -77 0 -78 43 -42 c34 -33 50 -42 78 -42 61 0
98 65 42 72 l-28 3 -3 123 c-3 119 -3 122 -25 122 -12 0 -41 -19 -64 -41z"/>
<path d="M1900 955 c0 -32 2 -35 30 -35 l30 0 0 -145 0 -145 -80 0 c-71 0 -80
-2 -80 -18 0 -39 31 -52 121 -52 l85 0 42 43 42 43 0 136 0 137 -44 35 c-37
31 -50 36 -95 36 l-51 0 0 -35z"/>
<path d="M2192 967 c-39 -41 -30 -47 73 -47 l95 0 0 -125 0 -125 65 0 65 0 0
123 0 123 -38 37 -38 37 -100 0 c-92 0 -102 -2 -122 -23z"/>
<path d="M2560 830 l0 -160 65 0 65 0 0 160 0 160 -65 0 -65 0 0 -160z"/>
<path d="M2737 972 c-25 -28 -22 -52 8 -52 l25 0 0 -125 0 -125 65 0 65 0 0
138 c0 132 -1 140 -23 160 -31 29 -116 31 -140 4z"/>
<path d="M2947 972 c-25 -28 -22 -52 8 -52 l25 0 0 -125 0 -125 65 0 65 0 0
128 0 128 -33 32 c-26 25 -41 32 -73 32 -27 0 -47 -6 -57 -18z"/>
<path d="M3213 949 l-43 -40 0 -77 0 -78 43 -42 c24 -24 52 -42 65 -42 22 0
22 2 22 160 0 159 0 160 -22 160 -13 0 -42 -19 -65 -41z"/>
<path d="M3330 955 c0 -33 2 -35 35 -35 32 0 35 -2 35 -30 0 -28 -3 -30 -35
-30 -32 0 -35 -2 -35 -30 l0 -30 95 0 95 0 0 59 c0 58 -1 61 -44 95 -37 31
-50 36 -95 36 l-51 0 0 -35z"/>
<path d="M3757 972 c-26 -28 -21 -50 11 -54 l27 -3 0 -85 0 -85 -27 -3 c-25
-3 -28 -8 -28 -38 l0 -34 53 0 c49 0 56 3 95 43 42 43 42 43 42 120 l0 76 -42
40 c-49 46 -102 55 -131 23z"/>
<path d="M4023 949 l-43 -40 0 -77 0 -78 43 -42 c37 -36 49 -42 85 -42 41 0
42 1 42 34 0 25 -5 35 -20 39 -18 5 -20 14 -20 87 0 73 2 82 20 87 15 4 20 14
20 39 0 33 -1 34 -42 34 -36 0 -50 -7 -85 -41z"/>
<path d="M4180 955 c0 -24 5 -35 15 -35 12 0 15 -17 15 -90 0 -73 -3 -90 -15
-90 -10 0 -15 -11 -15 -35 0 -35 1 -35 43 -35 37 0 48 6 80 38 37 38 37 38 37
123 l0 85 -38 37 c-31 31 -45 37 -80 37 -41 0 -42 -1 -42 -35z"/>
<path d="M4443 949 l-43 -40 0 -77 0 -78 43 -42 c37 -36 49 -42 85 -42 41 0
42 1 42 34 0 25 -5 35 -20 39 -18 5 -20 14 -20 87 0 73 2 82 20 87 15 4 20 14
20 39 0 33 -1 34 -42 34 -36 0 -50 -7 -85 -41z"/>
<path d="M4600 955 c0 -24 5 -35 15 -35 12 0 15 -17 15 -90 0 -73 -3 -90 -15
-90 -10 0 -15 -11 -15 -35 0 -35 1 -35 43 -35 37 0 48 6 80 38 37 38 37 38 37
123 l0 85 -38 37 c-31 31 -45 37 -80 37 -41 0 -42 -1 -42 -35z"/>
<path d="M5011 941 c-30 -46 -32 -54 -29 -132 l3 -84 93 128 c50 70 92 129 92
132 0 3 -29 5 -64 5 l-64 0 -31 -49z"/>
<path d="M2177 832 c-38 -40 -38 -103 1 -137 38 -34 109 -35 140 -2 31 33 28
47 -13 47 -32 0 -35 2 -35 30 0 28 3 30 35 30 32 0 35 2 35 30 l0 30 -68 0
c-62 0 -71 -3 -95 -28z"/>
<path d="M5057 782 c-34 -45 -36 -52 -26 -81 11 -31 12 -31 80 -31 38 0 69 2
69 5 0 9 -57 119 -72 139 -14 17 -17 15 -51 -32z"/>
<path d="M3330 705 l0 -35 68 0 c72 0 102 16 102 53 0 15 -12 17 -85 17 l-85
0 0 -35z"/>
</g>
</svg>
